<svg xmlns="http://www.w3.org/2000/svg" xmlns:xlink="http://www.w3.org/1999/xlink" width="500" zoomAndPan="magnify" viewBox="0 0 375 374.999991" height="500" preserveAspectRatio="xMidYMid meet" version="1.0"><path fill="#c6a792" d="M 295.96875 323.949219 C 301.988281 323.910156 305.972656 323.980469 305.972656 323.980469 C 305.972656 323.980469 289.550781 315.707031 266.660156 283.859375 C 231.664062 235.785156 213.371094 194.140625 192.90625 101.886719 C 155.324219 281.035156 75.671875 325.1875 75.671875 325.1875 C 75.671875 325.1875 91.761719 324.402344 120.332031 324.054688 C 147.875 323.742188 153.421875 325.003906 295.96875 323.949219 Z M 337.945312 325.800781 C 338.386719 329.621094 335.816406 328.996094 316.011719 329.246094 C 317.226562 332.253906 322.457031 341.59375 318.222656 341.660156 C 315.898438 341.695312 314.921875 339.273438 312.84375 335.5 C 309.289062 328.109375 311.214844 329.304688 304.875 329.378906 C 107.859375 331.25 71.101562 330.605469 71.101562 330.605469 C 71.101562 330.605469 68 336.355469 65.738281 341.125 C 64.46875 343.765625 58.933594 344.015625 62.5625 337.53125 C 64.332031 334.351562 66.316406 330.839844 66.4375 330.625 C 52.660156 330.808594 51.46875 331.605469 50.496094 329.132812 C 49.554688 326.796875 51.578125 325.035156 54.71875 325.253906 L 68.75 325.035156 C 68.75 325.035156 84.585938 282.328125 182.082031 96.789062 C 186.835938 88.542969 188.15625 83.679688 188.15625 83.679688 C 188.15625 83.679688 182.738281 73.441406 170.523438 44.261719 C 169.863281 42.613281 168.007812 38.578125 167.710938 37.078125 C 167.230469 34.574219 170.46875 32.691406 172.5 34.578125 C 172.691406 34.757812 193.703125 79.667969 193.058594 79.570312 C 202.820312 62.417969 211.042969 40.410156 215.707031 34.679688 C 216.660156 33.503906 217.875 34.277344 218.484375 34.546875 C 221.925781 35.867188 201.105469 75.300781 197.128906 83.480469 C 197.214844 83.679688 285.757812 264.417969 313.417969 323.777344 C 335.5 323.53125 337.542969 322.257812 337.945312 325.800781 Z M 337.945312 325.800781 " fill-opacity="1" fill-rule="nonzero"/><path fill="#b47769" d="M 235.402344 293.191406 C 232.921875 291.464844 230.257812 290.089844 227.410156 289.066406 C 224.566406 288.042969 221.636719 287.402344 218.621094 287.148438 C 221.675781 284.980469 224.410156 282.460938 226.828125 279.597656 C 229.042969 276.957031 230.863281 273.046875 230.035156 272.265625 C 229.539062 270.761719 219.597656 272.003906 218.039062 272.386719 C 216.820312 272.691406 215.617188 273.058594 214.4375 273.496094 C 215.140625 271.808594 215.71875 270.078125 216.179688 268.308594 C 216.964844 264.875 217.390625 261.394531 217.445312 257.871094 C 218.285156 254.125 206.324219 260.722656 202.734375 264.679688 C 202.027344 265.46875 201.371094 266.296875 200.757812 267.160156 C 199.933594 254.125 192.179688 245.792969 191.199219 247.125 C 189.203125 249.808594 187.597656 252.707031 186.375 255.820312 C 185.152344 258.933594 184.359375 262.148438 183.992188 265.472656 C 183.097656 264.660156 182.21875 263.835938 181.394531 262.9375 C 179.316406 260.617188 166.3125 254.71875 166.628906 257.5625 C 166.628906 259.734375 167.671875 266.515625 170.304688 273.011719 C 164.738281 271.035156 159.089844 270.566406 155.242188 271.164062 C 153.121094 271.496094 155.34375 274.683594 157.355469 277.703125 C 159.828125 281.429688 162.828125 284.671875 166.351562 287.425781 C 165.035156 287.632812 163.570312 287.921875 162.007812 288.316406 C 156.726562 289.636719 151.511719 292.335938 153.140625 293.515625 C 165.738281 305.804688 184.667969 299.808594 191.066406 295.839844 C 191.609375 295.511719 192.167969 295.21875 192.746094 294.960938 C 193.210938 295.199219 195.292969 296.320312 196.152344 296.734375 C 217.546875 307.085938 237.585938 294.730469 235.402344 293.191406 Z M 235.402344 293.191406 " fill-opacity="1" fill-rule="nonzero"/></svg>